<?xml version="1.0" encoding="utf-8"?>
<!-- Generator: Adobe Illustrator 26.0.1, SVG Export Plug-In . SVG Version: 6.00 Build 0)  -->
<svg version="1.1" id="Layer_1" xmlns="http://www.w3.org/2000/svg" xmlns:xlink="http://www.w3.org/1999/xlink" x="0px" y="0px"
	 viewBox="0 0 170 41" style="enable-background:new 0 0 170 41;" xml:space="preserve">
<style type="text/css">
	.st0{fill:#003665;}
	.st1{fill:#72869E;}
</style>
<path class="st0" d="M18.47,31.62c-0.05,0-0.03,0.12-0.03,0.16C18.48,31.75,18.49,31.7,18.47,31.62 M17.12,23.97
	c-0.04,0.12-0.01,0.19,0.09,0.19C17.3,24.16,17.16,23.77,17.12,23.97 M17.27,23.44c0.39,0.21,0.08-0.52-0.16-0.35
	C17.02,23.17,17.21,23.41,17.27,23.44 M17.05,22.62c-0.17-0.83-0.38,0.55,0.27,0.24c0.24-0.01,0.23-0.26,0.06-0.24
	C17.29,22.63,16.92,22.86,17.05,22.62 M17.02,24.26c0.06-0.15-0.12-0.25-0.24-0.24C16.68,24.07,16.96,24.36,17.02,24.26 M16.77,21.3
	c-0.1,0.1,0.22-0.23,0.19-0.16C16.9,21.08,16.8,21.26,16.77,21.3z M16.9,28.28c-0.06-0.1-0.12-0.11-0.19-0.03
	C16.77,28.33,16.83,28.35,16.9,28.28 M16.58,27.24c-0.1,0.04-0.1,0.09,0,0.16C16.69,27.36,16.69,27.31,16.58,27.24 M16.42,20.48
	c-0.1,0.1,0.19,0.02,0.19,0C16.57,20.42,16.51,20.42,16.42,20.48 M16.58,21.33c-0.06-0.15-0.12-0.17-0.17-0.06
	C16.25,21.43,16.85,21.65,16.58,21.33 M16.36,28.03c0.05,0,0.29,0.58,0.19,0.63C16.56,28.64,16.25,28.06,16.36,28.03 M16.39,21.01
	c-0.2,0.09,0.11,0.07,0.13,0.03c0.08-0.05-0.04-0.26-0.1-0.22C16.47,20.89,16.46,20.95,16.39,21.01 M16.33,24.38
	c0.08-0.02,0.08-0.05,0-0.09C16.22,24.35,16.22,24.38,16.33,24.38 M16.88,28.99c-0.37-1.51-0.97-2.54-0.39-0.11
	c0-0.02,0.01-0.04,0.03-0.06c0.07,0.79,0.97,2.08,0.82,2.9c0.05-0.42-0.48-1.44-0.63-1.95c0.42,1.57,0.73,2.56,1.42,3.74
	c-0.04-0.1,0.15-0.96-0.06-0.79c-0.19,0.22-0.32,0.02-0.14-0.16c0.09-0.1,0.12-0.18,0.08-0.22c-0.19,0.04-0.17,0.09-0.11-0.16
	c0.03-0.1,0.02-0.15-0.05-0.12c-0.32-0.4-0.5-1.21-0.6-1.67C16.97,29.98,16.98,29.55,16.88,28.99 M16.49,23.34
	c-0.6-0.74-0.21,1.54,0.28,1.07c0.1-0.11-0.3-0.7-0.28-0.82c0.08,0.17,0.16,0.27,0.22,0.31C16.65,23.86,16.39,23.42,16.49,23.34
	 M16.24,22.87c-0.06-0.06-0.1,0.05-0.1,0.35C16.2,23.11,16.33,22.97,16.24,22.87 M16.08,20.67c-0.02,0.02,0.01,0.04,0.08,0.05
	C16.39,20.77,16.16,20.54,16.08,20.67 M16.11,27.43c0.1-0.06,0.09-0.13-0.03-0.19C16.04,27.31,16.05,27.37,16.11,27.43 M15.98,19.66
	c-0.05-0.1-0.03,0.13-0.03,0.16C16.02,19.82,16.03,19.77,15.98,19.66 M15.7,19.28c-0.13,0.04-0.14,0.08-0.03,0.12
	C15.77,19.37,15.78,19.33,15.7,19.28 M15.76,21.3c0.18,0-0.32-0.13-0.19-0.12c-0.15-0.05,0.13,0.49,0.16,0.38
	C15.74,21.5,15.58,21.28,15.76,21.3 M15.95,22.27c0.32-0.82-1.14-0.32-0.28-0.19c0.54,0.1-0.14,0.39,0.16,0.6
	c0.08,0.06,0.26-0.23,0.25-0.28C15.9,22.43,15.92,22.45,15.95,22.27 M15.54,20.95c-0.06-0.04-0.14-0.05-0.22-0.03
	C15.33,21.09,15.47,21.14,15.54,20.95 M15.23,20.6c-0.1,0.09,0.14,0.09,0.16,0.09C15.39,20.59,15.33,20.56,15.23,20.6 M15.23,23.47
	l-0.19-0.31C15.25,23.15,15.47,23.24,15.23,23.47z M14.98,20.2c-0.1,0.24,0.15-0.01,0.13-0.06C15.1,20.13,14.98,20.2,14.98,20.2z
	 M15.29,22.52c-0.72-0.3-0.33,1.36-0.12,1.64c-0.13-0.18-0.21-0.1-0.11,0.03c0.16,0.13,0.45,0.13,0.65,0.13
	c0.09,0.03,0.04-0.4,0-0.38c-0.1-0.06-0.19-0.06-0.27,0.02c-0.1,0.17-0.23-0.36-0.06-0.36C15.55,23.56,15.35,22.65,15.29,22.52
	 M14.79,21.52c-0.06,0.02-0.05,0.07,0.03,0.16C14.88,21.59,14.87,21.54,14.79,21.52 M14.82,24.1c0.08-0.03,0.09-0.09,0-0.09
	C14.71,24.05,14.71,24.08,14.82,24.1 M14.73,21.77c-0.05,0.05,0.13,0.03,0.16,0.03C14.86,21.74,14.81,21.73,14.73,21.77
	 M14.73,22.34c-0.11,0.04-0.11,0.08,0,0.13C14.81,22.44,14.81,22.4,14.73,22.34 M14.41,18.72c-0.04,0.04-0.03,0.09,0.03,0.13
	C14.53,18.82,14.52,18.78,14.41,18.72 M14.32,20.82c0.02-0.06,0-0.14-0.06-0.25C14.21,20.7,14.23,20.78,14.32,20.82 M14.22,20.29
	c-0.02,0.06,0,0.1,0.06,0.13C14.33,20.37,14.31,20.33,14.22,20.29 M13.94,20.57c-0.05,0.05,0.16,0.03,0.19,0.03
	C14.11,20.54,14.04,20.53,13.94,20.57 M9.41,12.74c-0.14,0.25,0.12,0.01,0.17-0.06C9.65,12.54,9.47,12.67,9.41,12.74 M9.03,13.49
	c-0.08-0.04-0.15-0.02-0.19,0.06C8.95,13.6,9.01,13.58,9.03,13.49 M8.78,13.81c-0.08-0.06-0.16-0.04-0.22,0.06
	C8.66,13.91,8.74,13.89,8.78,13.81 M8.24,12.87c0.01,0.07-0.03,0.07-0.03,0.12c0.4-0.45,0.89-0.8,1.07-1.23
	c-0.15,0.04-0.6,0.28-0.58,0.44c0.03,0.06,0.04,0.09,0.02,0.09C8.43,12.32,8.67,12.38,8.24,12.87 M8.05,14.94
	c-0.08,0.02-0.08,0.06,0,0.13C8.18,15.03,8.18,14.98,8.05,14.94 M7.55,17.74c0.01-0.12,0.13-0.31,0.19-0.44
	C7.66,17.38,7.59,17.53,7.55,17.74 M7.33,16.26c-0.08,0.06-0.07,0.1,0.03,0.12C7.41,16.35,7.4,16.31,7.33,16.26 M7.33,14.12
	c-0.11,0.02-0.11,0.06,0,0.13C7.46,14.21,7.46,14.17,7.33,14.12 M10.45,16.73c-1.2,2.2-2.5,5.17-3.3,7.55
	c1.9,0.07,3.8,0.08,5.63-0.05C14.08,24.4,10.86,17.64,10.45,16.73 M6.67,17.44c0.12-0.06,0.51-0.46,0.33-0.55
	C6.92,16.95,6.56,17.31,6.67,17.44 M6.67,15.16c-0.06,0.06-0.07,0.11-0.03,0.16C6.86,15.33,6.86,14.97,6.67,15.16 M6.45,15.54
	c-0.11,0.28,0.28,0.03,0.25-0.06C6.76,15.14,6.48,15.52,6.45,15.54 M6.04,16.33c-0.11,0.19,0.35,0.24,0.27,0.05
	C6.46,15.78,6.14,15.81,6.04,16.33 M5.35,18.72c0.08-0.02,0.08-0.07,0-0.16C5.24,18.62,5.24,18.67,5.35,18.72 M5.19,18.15
	c-0.18,0.18,0.06,0.23,0.13,0.13c0-0.1,0.05-0.16,0.14-0.17c0.22-0.06,0.15-0.15-0.05-0.2c0.16-0.08,0.39-0.14,0.44-0.25
	c-0.59,0.27-0.12-0.43,0.22-0.6c-0.1-0.15-0.18-0.46,0.03-0.16C5.97,15.79,5.3,17.86,5.19,18.15 M6.92,19.31
	c0.11-0.42,0.56-0.88,0.54-1.32c0-0.02-0.04,0.05-0.11,0.2c-0.96,1.91-1.74,4.07-2.31,6.28C5.73,22.87,6.27,20.96,6.92,19.31
	 M5.32,19.09c0.07-0.06-0.45,0.21-0.31,0.22C5.02,19.33,5.34,19.13,5.32,19.09 M4.78,22.27c0.03,0.01,0.5-1.16,0.57-1.35
	c0.09-0.34,0.48-0.76,0.5-1.1c0.06-0.73,0.67-1.4,0.69-2.12c-0.04-0.26-0.47,0.94-0.38,1.05c-0.2-0.15-0.12,0.09-0.06,0.16
	C5.36,19.69,5.06,21.26,4.78,22.27z M4.25,21.05c0.04-0.08,0.06-0.14,0.06-0.16L4.25,21.05z M4.41,23.47
	c0.06-0.12,0.27-0.66,0.28-0.82c-0.14,0.54-0.58,1.21-0.66,1.76C4.09,24.31,4.37,23.57,4.41,23.47 M3.59,22.11
	c0.01,0.36-0.6,0.97-0.5,1.32c0.18-0.33,0.33-0.72,0.47-1.07C3.38,23,3.04,23.92,2.9,24.51c0.6-0.89,0.77-2.13,1.21-3.13
	c0.06-0.23,0.39-0.47,0.49-0.68c-0.11-0.5,0.12-0.43,0.19-0.75c-0.05-0.23,0.44-0.2,0.19-0.44c-0.15-0.26,0.32-0.57,0.2-0.93
	c-0.08-0.6-0.77,1.41-0.83,1.43c-0.18,0.51-0.38,1.47-0.6,1.95l-0.09-0.09c0.05,0.15-0.04,0.32-0.09,0.5
	C3.6,22.22,3.61,22.14,3.59,22.11 M4.25,27.53c-0.07-0.97-1.15,4.1-1.54,4.37C3.12,32.75,4.04,27.95,4.25,27.53 M2.8,24.32
	c0.1-0.17,0.17-0.34,0.19-0.5c-0.05,0.18-0.42,0.5-0.32,0.72c0,0.04,0.03,0.01,0.1-0.09C2.83,24.34,2.84,24.3,2.8,24.32 M2.45,25.86
	l-0.09,0.09C2.4,25.87,2.4,25.91,2.45,25.86 M2.2,26.14c-0.06-0.01,0.01-0.01-0.03,0.13c-0.02,0.1-0.01,0.13,0.03,0.06V26.14z
	 M2.11,26.52c-0.05,0.09-0.38,0.97-0.19,0.85c0.05-0.11,0.1-0.41,0.13-0.47L2.11,26.52z M0.76,31.05c0.09-0.18,0.28-0.57,0.25-0.75
	C0.89,30.57,0.83,30.86,0.76,31.05 M0.76,31.43c0,0.06-0.02,0.12-0.06,0.16C0.69,31.57,0.71,31.51,0.76,31.43 M17.84,24.29
	c-0.08-0.15-0.23-0.39-0.19-0.54c0.13-0.08,0.27-0.31,0.03-0.32c-0.16,0.01-0.03,0.22-0.25,0.19c-0.38,0.04-0.06,0.4,0.09,0.6
	c-0.07,0.09-0.15,0.24,0.05,0.19c0.05-0.02,0.1,0.01,0.14,0.09c0.33,1.3,0.77,2.59,1.07,3.9c0.49,1.25,0.45,2.9,1.07,3.87
	c0.08,0.27-0.29,0.01-0.31,0.06c-0.02,0.1,0.03,0.16,0.14,0.16c0.49-0.13,0.13-0.84,0.11-1.24c-0.29-1.08-0.73-2.34-1.01-3.41
	c-0.06-0.26-0.34-0.7-0.03-0.82c-0.12-0.17-0.76-1.11-0.31-1.23c0.17,0.02,0.22,0.13,0.16,0.33c-0.23,0.49,0.06,0.33,0.19,0.68
	c0.42,1.68,1.06,3.38,1.42,5.1c0.02,0.26,0.44,0.98,0.09,1.13c-0.05,0-0.03-0.23-0.03-0.28c-0.09,0.22-0.21,0.66-0.16,0.91
	c-0.07-0.12-0.29-1.28-0.38-0.82c-0.01,4.45-2-5.57-2.2-5.85c0.08-0.02-0.39,0.16-0.32,0.06c0.05,0.46,0.36,0.86,0.42,1.38
	c0.15,0.25,0.26,0.56,0.11,0.79c0.18,0,0.3,0.13,0.06,0.19l0.22,0.09c-0.02,0.13-0.28,0.22-0.09,0.41c0.38-0.29-0.05,0.47,0.16,0.41
	c0.04-0.02,0.07-0.01,0.08,0.03c0.33,0.84,0.69,2.09,0.74,2.99c0.07,0.11,0.37,0.47,0.13,0.5c0.09,0.17,0.22,1.04-0.19,0.66
	c-0.03,0-0.59-1.08-0.52-0.5c0.45,1.14-0.74,0.07-1.05-0.06c-1.56-1.42-2.14-3.72-2.78-5.66c-0.04-0.73-0.74-0.68-1.34-0.6
	c0.06,0,0.11-0.01,0.16-0.03c-2.14,0.13-4.84-0.21-6.95,0c-0.88,1.97-0.96,4.87-2.8,6.29c-1.53,0.94-1.09-0.65-0.91-1.73
	c-0.26,0.33-0.19,1.07-0.36,1.46c-0.12,0.31-0.15,0.24-0.33,0.08c-0.04,0.12-0.05,0.22-0.14,0.27c-0.12-2.26,0.94-5.09,1.59-7.32
	c-1.1,2.1-1.33,4.96-1.87,7.27c-0.29,1.3-0.71-0.58-0.49-0.91c-0.42-1.87,1.1-4.13,1.34-6.04c-0.02-0.31,0.41-1.19,0-1.26
	c-0.14,0.03-0.22,0.36-0.02,0.19c-0.26,0.26-0.13,1.87-0.53,1.64c-0.19,1.25-0.65,2.66-1.07,3.84c0.05-0.43-0.25,0.32-0.06,0.16
	l-0.06,0.19c-0.11,0.1,0.12,0.05,0.16,0.06c-0.06,0.44-0.05,0.99-0.06,1.45c-0.03,0.17,0.18,0.77-0.06,0.88
	c-0.15,0.1-0.26,0.06-0.35-0.13c-0.57-1.51-0.28-3.13,0.22-4.64c1.32-3.6,2.06-7.3,3.88-10.67c4.26-11.13,7.7-10.21,12.3,0.16
	c1.66,3.63,3.62,10.17,3.6,12.88c-0.65-2.16-1.14-4.39-1.92-6.48c-0.09-0.07-0.05,0.52-0.09,0.47c-0.17,0.04-0.22-0.36-0.3-0.52
	c-0.23-0.68-0.09-0.81,0.19-0.13c0.45,0.19-0.19-1.03-0.27-1.18c0.02,0.2-0.27,0.49,0.13,0.35C18.05,24.6,17.96,24.47,17.84,24.29
	 M28,28.5c0.1-0.16-0.27,0.02-0.09,0.03C27.95,28.53,27.98,28.52,28,28.5 M27.97,25.45c0.08-0.12,0.06-0.19-0.08-0.09
	C27.72,25.51,27.85,25.48,27.97,25.45 M29.61,21.3c-0.78,0.99-1.77,2.25-1.79,3.52c0.09,0.01,0.16-0.23,0.21-0.33
	c0.37-1.23,0.98-2.3,1.95-3.18C30.75,20.57,29.83,21.12,29.61,21.3 M27.78,22.21c-0.13,0.13-0.02,0.18,0.06,0
	C27.94,22,27.79,22.16,27.78,22.21 M27.69,26.08c-0.02,0.06-0.01,0.16,0.03,0.28c-0.03-0.02,0.19-0.14,0.22-0.12
	c-0.05,0-0.18-0.46-0.19-0.44C27.69,25.9,27.67,26,27.69,26.08 M27.63,27.24c-0.03,0.21,0.29-0.25,0.09-0.13
	C27.72,27.12,27.63,27.24,27.63,27.24z M27.72,26.43c-0.21-0.07-0.01,0.57,0,0.16C27.72,26.58,27.72,26.43,27.72,26.43z
	 M27.81,28.28c-0.07-0.2,0.25-0.06,0.09-0.25c-0.3-0.25-0.26-0.36-0.41,0.1C27.19,28.37,27.76,28.51,27.81,28.28 M27.22,24.29
	c-0.04,0.04-0.04,0.08,0,0.12c0.52-0.9,1.38-2.75,1.95-3.46C28.25,21.69,27.48,23.11,27.22,24.29 M26.34,21.77
	c-0.04,0.04-0.06,0.09-0.06,0.16c0.04-0.14,0.29-0.28,0.31-0.44C26.65,21.38,26.26,21.85,26.34,21.77 M26.34,22.68
	c0.14-0.31,0.7-1,0.75-1.35c-0.66,0.56-1.05,1.31-1.26,2.12c-0.06,0.22-0.17,0.58-0.25,0.74C25.92,24.03,26.17,22.95,26.34,22.68
	 M25.08,26.83c0.27-0.39-0.4-0.52-0.19-0.11C24.97,26.84,25.04,26.88,25.08,26.83 M23.76,25.36c0.12-0.26-0.17,0.18-0.06,0.06
	C23.69,25.42,23.76,25.36,23.76,25.36z M23.6,24.92c0.22,0,0.14-0.35,0-0.11C23.56,24.88,23.56,24.92,23.6,24.92 M25.64,20.48
	c-1.22,1.18-1.99,2.93-2.27,4.56c0.71-1.54,1.19-3.17,2.56-4.36C27.34,19.24,26.7,19.49,25.64,20.48 M23.47,23.5
	c-0.08,0.12-0.19,0.38-0.19,0.54c0.51-0.73,0.78-1.93,1.32-2.71C24.08,21.76,23.72,22.88,23.47,23.5 M23.19,24.19
	c-0.08,0.08-0.09,0.15-0.03,0.19C23.17,24.4,23.34,23.94,23.19,24.19 M23.03,26.83c0.1-0.08-0.06-0.18-0.1-0.22
	C22.94,26.7,22.97,26.77,23.03,26.83 M23.13,24.98c-0.12-0.16-0.26-0.02-0.16,0.06C23.02,25.07,23.27,25.12,23.13,24.98
	 M22.59,26.49c-0.11,0.06-0.04,0.28,0.03,0.19C22.66,26.55,22.81,26.46,22.59,26.49z M22.62,31.02c-3.6-5.27,1.47-14.74,8.12-13.18
	c1.97,0.63,4.98,2.4,4.25,4.83c-0.37,0.91-1.8,1.43-2.44,0.54c-0.6-0.56-0.32-2.33-1.35-2.22c-2.43,1.4-3.25,4.44-2.85,7.11
	c0.24,1.97,2.16,4.57,4.25,2.9c0.59-0.35,0.81-1.32,1.6-1.13C37.53,32.4,26.37,37.07,22.62,31.02 M44.99,20.76
	c-0.06-0.03-0.25-0.03-0.25,0.06C44.64,20.97,45.04,20.81,44.99,20.76 M43.01,27.59c0.1,0.06,0.1,0.1,0,0.13
	C42.93,27.7,42.93,27.65,43.01,27.59 M42.92,27.02c0.22-0.07,0.25,0.54,0.09,0.5C42.97,27.5,42.67,27.01,42.92,27.02 M42.87,30.12
	c0.14,0.13,0.17,0.53-0.08,0.55C43.03,30.58,42.54,29.91,42.87,30.12 M42.92,31.93c0.05,0-0.07,0.46-0.13,0.44
	C42.63,32.44,42.72,31.85,42.92,31.93 M42.79,31.05c-0.2,0.05-0.02-0.09,0.09-0.03C42.93,31.06,42.9,31.07,42.79,31.05 M42.88,32.59
	c-0.08,0.08-0.16,0.08-0.22,0C42.73,32.53,42.8,32.53,42.88,32.59 M42.82,28.16c0-0.12,0-0.14,0.01-0.05c0,0.15,0.13,0.2,0.14,0.06
	C43,28.09,42.9,27.76,43,27.81c0.15,0.04,0.18,0.08,0.11,0.11c-0.33,0.39,0.19,1.53-0.21,2c-0.12-0.01-0.14-0.36-0.19-0.47
	c-0.1,0.06-0.12,0.03-0.06-0.1C42.93,29.1,42.8,28.51,42.82,28.16 M42.73,32.72c0.22,0.07-0.08,0.61-0.12,0.69
	C42.6,33.4,42.64,32.69,42.73,32.72 M42.63,22.9c0.11-0.04,0.11-0.09,0-0.16C42.53,22.79,42.53,22.84,42.63,22.9 M42.63,22.62
	c0.08-0.11,0.04-0.18-0.06-0.16C42.53,22.55,42.55,22.6,42.63,22.62 M42.6,33.85c-0.1,0.2-0.11-0.38,0-0.31
	C42.71,33.64,42.71,33.75,42.6,33.85 M42.7,23.75c-0.26,0.35-0.19,1.04-0.19,1.51C42.56,24.77,42.85,24.13,42.7,23.75 M42.73,26.46
	c-0.02-0.08-0.15-0.53-0.28-0.38C42.53,26.25,42.51,26.73,42.73,26.46z M42.54,22.24c0-0.11,0.06-0.56,0.13-0.66
	C42.5,21.76,42.33,21.96,42.54,22.24 M42.6,25.48c-0.31-0.19-0.13,0.36,0,0.35C42.77,25.75,42.77,25.56,42.6,25.48 M42.51,17.55
	c0.09-0.09,0.05-0.28-0.06-0.35C42.22,17.09,42.36,17.68,42.51,17.55 M42.32,30.77c0-0.08-0.04-0.1-0.11-0.06
	C42.03,30.82,42.24,30.87,42.32,30.77 M42.04,28.28c-0.11-0.04-0.14-0.02-0.09,0.06C42.1,28.43,42.32,28.27,42.04,28.28
	 M41.97,31.24c0.02-0.03-0.13-0.16-0.1-0.05C41.91,31.27,42.09,31.44,41.97,31.24 M41.91,27.31c-0.02-0.08-0.02-0.15,0-0.19
	C41.79,27.08,41.74,27.49,41.91,27.31 M42.16,31.43c-0.11,0.1-0.39,0.2-0.13,0.32c-0.37-0.22-0.26,0.43,0,0.35
	c0.06-0.04,0.05-0.08-0.03-0.11c-0.22-0.06-0.01-0.2,0.06-0.22C42.12,31.77,42.17,31.54,42.16,31.43z M41.75,31.4
	c0.06,0.11,0.1,0.11,0.1,0C41.8,31.31,41.77,31.31,41.75,31.4 M41.75,29.7c0.04,0.04,0.1,0.05,0.16,0.03
	C41.87,29.65,41.81,29.64,41.75,29.7 M41.72,29.19c0.06,0.02,0.1,0.01,0.13-0.03C41.78,29.1,41.74,29.11,41.72,29.19 M41,33.63
	c0.08,0.08,0.16,0.08,0.22,0C41.27,33.56,40.75,33.53,41,33.63 M40.9,30.42c0.06,0.08,0.1,0.08,0.13,0
	C40.97,30.34,40.92,30.34,40.9,30.42 M40.84,31.11c0.08,0.12,0.13,0.12,0.13-0.03C40.88,31,40.84,31.01,40.84,31.11 M40.84,28.44
	c0,0.08,0.05,0.09,0.14,0.03c0.21-0.14-0.14-0.27-0.27-0.22l0.22,0.09L40.84,28.44z M40.71,27.81c0.04,0.06,0.08,0.04,0.12-0.06
	C40.78,27.73,40.73,27.75,40.71,27.81 M40.71,31.59c0.08-0.06,0.07-0.11-0.03-0.16C40.62,31.49,40.63,31.54,40.71,31.59
	 M40.84,27.12c-0.05-0.01-0.28,0.11-0.28,0.16C40.6,27.24,40.98,27.22,40.84,27.12 M39.71,13.21c0.04-0.08,0.01-0.14-0.09-0.16
	C39.59,13.14,39.62,13.19,39.71,13.21 M39.55,13.53c0.06-0.06,0.05-0.1-0.03-0.13C39.48,13.44,39.49,13.48,39.55,13.53 M39.46,13.71
	c0.06-0.04,0.05-0.08-0.03-0.12C39.38,13.61,39.39,13.65,39.46,13.71 M39.2,25.95c0.02-0.06,0-0.1-0.06-0.12
	C39.08,25.89,39.1,25.93,39.2,25.95 M39.01,25.42c0.3-0.25-0.02-1.03,0.03-1.51C38.95,24.24,38.83,25.11,39.01,25.42 M42.7,21.71
	c0.48-0.1,0.21,0.62,0.3,0.94c0.07,0.37-0.31,0.17-0.03,0.46c0.11,0.15-0.15,0.01-0.21-0.02c-0.23-0.2-0.1,0.39-0.09,0.54
	c0.8-1.5-0.03,2.2,0.27,2.59c-0.05,0.21,0.29,0.87-0.11,0.71c0.09-0.68-0.29-0.06-0.27,0.19c0.03,0.22,0.43,0.18,0.25,0.49
	c-0.2,0.66-0.25,1.75-0.27,2.44c-0.09,1.36,0.33,3.1-0.44,4.28c-0.21-0.08-0.01-0.66-0.13-0.85c0.06,0.06-0.32,0.61-0.41,0.57
	c-0.2,0.07-0.34,0.15-0.28,0c0.05-0.12,0.06-0.19-0.12-0.19c-0.2,0.05-0.26,0.46-0.43,0.57c-0.05,0.04-0.09,0.02-0.11-0.06
	c-0.19,0-0.3-0.07-0.33-0.22c-0.03-0.15-0.12-0.26-0.27-0.35c0.08,0.63-0.39-0.04-0.75-0.19c-2.41-2.52-1.01-8.85-1.39-12.21
	c0-0.17-0.01-0.24-0.03-0.2c-0.05,0.05-0.26-0.08-0.41-0.06c-0.19-0.02-0.49-0.1-0.44-0.33c0.02-0.08,0-0.14-0.06-0.17
	c-0.12-0.17-0.76,0.05-0.58-0.23c0.14-0.16-0.56-0.11-0.61-0.16c-1.42-0.43,0.66-0.91,0.47-1.32c-0.72,0.2-2.19,1.12-0.93-0.46
	c0.67-0.61,1.39-0.81,2.31-0.71c0.79,0.03,0.39-0.74,0.55-1.35c0.17-1.32,0.09-3,0.98-4.03c1-0.96,0.89-0.38,0.71,0.58
	c0.04,0.13,0.15,0.05,0.06-0.14c0.22-0.01,0.32-0.56,0.53-0.5c0.05,0.13,0.13,0.35,0.28,0.16c0.1-0.04,0.16,0,0.16,0.13
	c0.25,0.2,1.22,0.95,1.35,1.39c0.14,0.65,0.04,1.87,0.05,2.56c0,0.38-0.05,0.68,0.24,0.57c0.11,0,0.1,0.29,0.13,0.39
	c0.4,0.04,1.1-0.12,1.4,0.03c0.5,0.1,1.25,0.96,0.69,1.19c-0.37,0.23-0.12,0.17,0.25,0.19c0.53-0.09,0.45,0.48,0.39,0.72h0.16
	c-0.07,0.12-0.26,0.22-0.34,0.31c0.16-0.07,0.76-0.14,0.52,0.2c-0.13,0.17-0.51,0.17-0.55,0.39c0.05,0.21,1.03-0.22,0.6,0.13
	C44.92,21.48,42.88,20.18,42.7,21.71z M50.75,16.04c0.18-0.33-0.26,0.08-0.09,0.13L50.75,16.04z M50.53,26.27c0,0.44,0,1.09,0,1.53
	c0,0.18,0.01,0.27,0.03,0.27c0.04-1.04,0.15-2.09,0.06-3.08C50.64,25.31,50.53,25.97,50.53,26.27 M49.49,26.3
	c0.05,0.82,0.23,1.51,0.16,2.2c0.19-0.64-0.1-1.93-0.13-2.64C49.46,25.91,49.6,26.29,49.49,26.3 M49.62,25.39
	c0-0.06-0.02-0.12-0.06-0.16C49.43,25.24,49.52,25.76,49.62,25.39 M49.62,25.1c-0.06-0.08-0.1-0.08-0.12,0
	C49.55,25.19,49.6,25.19,49.62,25.1 M49.49,24.16c-0.02,0.06,0,0.11,0.06,0.13C49.6,24.24,49.58,24.2,49.49,24.16 M48.45,28.57
	l-0.06-0.06C48.39,28.61,48.41,28.63,48.45,28.57 M48.33,27.87c0.04,0.85,0.22,0.32,0-0.06V27.87z M48.3,26.96
	c-0.02-0.04-0.03,0.02-0.03,0.19C48.26,27.06,48.3,27.05,48.3,26.96 M48.2,15.35c-0.02-0.04,0.34-0.29,0.09-0.31
	C47.95,14.96,47.76,15.87,48.2,15.35 M51.32,15.13c0.32,0.3-0.07,1-0.06,1.48c0.18-0.33,0.25-0.7,0.44-0.94
	c0.33,0.21-0.27,0.93-0.19,1.23c0.24-0.45,0.72-0.91,0.27-0.01c-1.03,1.14-3.18,1.15-4.26,0.08C45.7,14.07,49.69,12.83,51.32,15.13
	 M48.77,33.88c-1.18-0.43-1.62-2.21-1.76-3.26c-0.02-0.26-0.01-0.29,0.03-0.08c-0.17-1.72-0.85-12.24,1.42-11.61
	c-0.01,0.11-0.17,0.37-0.06,0.44l0.13-0.22c-0.02,0.04-0.03,0.17-0.03,0.38c-0.02,0.88,0.38-0.32,0.47-0.53
	c0.2-0.3,0.33,0.18,0.47,0.25c0.24-0.02,0-0.24,0.25-0.19c1.66,0.44,2.05,2.28,2.2,3.78c0.13,3.42,0.09,7.05-0.91,10.31
	c-0.12,0.04-0.24-0.12-0.35-0.14c-0.05,0.24-0.08,0.63-0.28,0.63c-0.19-0.64-0.21,0.23-0.33,0.41c-1.18,0.52-1.07-7-1.59-7.74
	c0.16,2.18,0.18,4.28,0.72,6.47c0.21,0.48-0.01,0.68,0.06,1.04C49.42,34.24,49.15,34.15,48.77,33.88 M67.17,23.26
	c0.03-0.13,0.19-0.22,0.22-0.35c0.02-0.06-0.17-0.44,0-0.29c0.25,1.15-0.48,2.34-0.82,3.42c-0.21,0.84-0.45,1.69-0.82,2.48
	C64.98,29.67,67.3,23.78,67.17,23.26 M65.29,23.99c-0.08,0.04-0.1,0.09-0.03,0.16C65.34,24.06,65.35,24.01,65.29,23.99 M64.59,21.78
	c-0.06,0.06-0.09,0.14-0.09,0.22c0.03-0.07,0.2-0.23,0.19-0.31C64.63,21.68,64.59,21.71,64.59,21.78 M66.26,24.62
	c0.1-0.13,0-0.49,0.09-0.63c-0.92,1.7-1.09,3.86-1.98,5.55C65.38,28.24,65.71,26.12,66.26,24.62 M64.09,22.98
	c-0.04,0.08-0.06,0.14-0.06,0.16C64.04,23.29,64.26,22.74,64.09,22.98 M64.37,22.79c-0.14,0.31-0.23,0.8-0.35,1.14
	c0.3-0.58,0.46-1.51,0.75-2.08C64.53,21.99,64.53,22.56,64.37,22.79 M64.06,27.11c0.1-0.23,0-0.4-0.11-0.05
	C63.84,27.38,63.97,27.34,64.06,27.11 M63.74,27.61c0.04,0.04,0.08,0.03,0.12-0.03C63.83,27.54,63.79,27.55,63.74,27.61 M64,27.9
	c0.7-1.03,0.71-2.51,1.16-3.63c-0.69,1.22-0.96,2.56-1.42,4.1C63.94,28.41,63.97,28.02,64,27.9 M63.59,28.43
	c0.04-0.02,0.06-0.07,0.06-0.16C63.6,28.25,63.36,28.69,63.59,28.43 M63.33,25.56c0-0.19,0.13-0.67,0.25-0.82
	C63.48,24.9,63.54,25.42,63.33,25.56 M63.24,25.85c0.21-0.22,0,0.18-0.09,0.22C63.15,25.98,63.18,25.91,63.24,25.85 M63.15,26.19
	c0.2-0.12-0.08,0.33-0.06,0.13C63.08,26.28,63.1,26.24,63.15,26.19 M63.08,26.45c0.05,0.02-0.15,0.43-0.19,0.44
	C62.95,26.82,62.91,26.42,63.08,26.45 M62.8,27.08c-0.01-0.18,0.13-0.08,0.03,0.03C62.81,27.15,62.8,27.14,62.8,27.08 M63.65,25.75
	c-0.1-0.48,0.11-1.07,0.28-1.55c-0.05,0.1-0.17,0.39-0.25,0.22c-0.02-0.06-0.06-0.03-0.13,0.09c-0.25,0.76-0.59,1.56-0.82,2.35
	c-0.04,0.16-0.04,0.27,0,0.33c-0.1,0.21,0.01,0.6-0.32,0.54c0.38,0.25-0.18,0.16-0.06,0.41c0.16-0.05,0.2,0.16,0.05,0.19
	c-0.09,0.02-0.15,0.05-0.17,0.09c0.2,0.46-0.23,0.91-0.19,1.4c0.02,1.48,1.06-3.11,1.4-3.34c0.17-0.23-0.04-0.28,0.03-0.52
	c0.06-0.22,0.08-0.21,0.17-0.06C63.65,25.91,63.65,25.75,63.65,25.75z M61.89,30.99c0.02-0.04,0.08-0.46-0.03-0.47
	C61.74,30.65,61.84,30.84,61.89,30.99z M61.7,31.52c0.02-0.13-0.02-0.19-0.13-0.19C61.61,31.48,61.64,31.8,61.7,31.52 M60.72,28.43
	c0.05,0.09,0.04,0.17,0.12,0.25L60.72,28.43z M60.16,27.45c0.11,0.27,0.27,0.49,0.41,0.73c-0.14-0.34-0.46-1.11-0.6-1.39
	C60.01,26.87,60.08,27.38,60.16,27.45 M57.33,22.85c0.05,0.02-0.21-0.37-0.19-0.13C57.18,22.81,57.24,22.85,57.33,22.85
	 M55.85,21.97c0.02-0.1-0.01-0.19-0.09-0.25C55.75,21.82,55.78,21.9,55.85,21.97 M55.6,25.28c0.04-0.04,0.03-0.08-0.03-0.13
	C55.52,25.19,55.53,25.24,55.6,25.28 M55.44,24.62c-0.04-0.02-0.06,0.02-0.05,0.11C55.42,24.93,55.45,24.67,55.44,24.62z
	 M54.65,22.79c-0.01-0.06-0.04-0.05-0.03-0.13C54.58,22.6,54.57,22.95,54.65,22.79 M54.56,22.41c-0.04-0.12-0.04,0.29,0,0.13
	C54.56,22.53,54.56,22.41,54.56,22.41z M67.61,22.41c-0.03,0.19-0.15,0.15-0.28,0.16c-0.26,0.25-0.25,0.79-0.38,1.14
	c-0.63,1.78-1.22,3.87-1.98,5.58c-0.3,0.6-0.28,1.01,0.06,0.28c0.11-0.16,0.44-0.83,0.35-0.35c-0.4,1.29-1.11,2.24-1.95,3.23
	c-0.37,0.9-1.17,1.34-2.04,1.53c-4.25,1.12-10.51-13-7.4-15.23c0.44,0.52,0.26,1.87,0.44,2.52c0.19,1.12,0.64,2.22,0.97,3.28
	c-0.23-1.64-0.94-3.15-1.02-4.89c-0.14-1.05,0.34-1.62,0.52-0.32c0.19,0.4,0.37,0.98,0.53,1.45c0.02-0.17-0.17-0.58-0.2-0.85
	c-0.04-0.44-0.45-1.27-0.08-1.55c0.08,0,0.23,0.12,0.44,0.35c-0.12-0.46,0.03-0.2,0.19,0.02c1.58,2.3,2.32,5.13,3.78,7.49
	c0.09-0.12-0.49-1.12-0.6-1.39c-0.31-0.49-0.47-1.12-0.72-1.61c-0.33-0.1-0.12-0.5-0.16-0.66c-0.7-0.99-1.35-2.22-1.76-3.34
	c-0.26-1.65,3.77,7.85,4.64,8.67c2.02-2.74,1.64-8.2,5.4-9.75c0.44,0.13-0.49,0.87-0.44,1.23l-0.13-0.09
	c-0.25,1.33,1.8-2.34,1.13-0.28c0.35-0.58,0.46-0.38,0.8,0.05c0.43,0.79-0.59,2.02-0.24,2.85c0.12-0.42,0.23-0.79,0.38-1.29
	C67.99,21.12,67.72,21.94,67.61,22.41 M80.92,24.88c-0.02-0.03-0.28,0.3-0.31,0.32c0.02-0.02-0.02,0.03-0.11,0.16
	C80.15,25.9,81.01,25.03,80.92,24.88 M81.39,24.82c-0.34,0.49-0.84,1.37-1.32,1.73c0.74-0.41,1.22-1.24,1.51-2.05
	C81.5,24.59,81.44,24.7,81.39,24.82 M79.98,24.63c-0.19,0.17-0.03,0.11,0.06-0.03L79.98,24.63z M79.19,23.78
	c-0.1,0.23,0.12-0.02,0.13-0.09L79.19,23.78z M79.32,24.07c-0.28,0.14-0.74,0.59-1.07,0.91C78.67,24.97,79.09,24.37,79.32,24.07
	 M76.68,21.14c-0.95,0.49-2.02,1.58-2.3,2.64c0.28-0.18,0.52-0.73,0.69-1.01c0.42-0.82,1.42-1.16,1.98-1.82L76.68,21.14z
	 M74.19,24.22c-0.11,0.24,0.15-0.08,0.09-0.09L74.19,24.22z M78.88,20.76c-2.69-0.34-7.24,7.31-2.49,4.44
	c1.24-0.8,2.23-1.77,2.8-3.18C79.38,21.48,79.72,20.67,78.88,20.76 M74.1,24.66c0.06-0.06,0.07-0.14,0.03-0.22
	C74.1,24.38,73.91,24.78,74.1,24.66 M73.88,25.04c0.02,0.02,0.1-0.18,0.12-0.25C73.92,24.81,73.88,24.89,73.88,25.04 M75.67,21.08
	c-0.82,0.61-1.33,1.46-1.79,2.36C74.57,22.86,74.98,21.68,75.67,21.08 M73.62,21.08c0.11-0.06,0.17-0.14,0.19-0.22
	C73.71,20.88,73.68,21,73.62,21.08z M74.06,20.98c-0.48,0.39-0.8,0.79-1.07,1.39c0.04,0,0.09-0.04,0.16-0.11
	C73.45,21.9,73.79,21.35,74.06,20.98z M72.15,20.54c-0.02,0.04-0.07,0.1-0.16,0.19C72.25,20.69,72.49,20.19,72.15,20.54
	 M71.77,21.52c-0.22,0.68,1.08-1.03,1.29-1.23c0.38-0.34,1.16-0.89,1.48-1.29C73.35,19.13,72.36,20.52,71.77,21.52 M69.38,28.82
	c-2.14-5.84,4.66-14.71,10.64-10c1.71,1.29,2.66,3.25,1.79,5.35c0.33-0.14,0.11-0.92,0.41-1.07c0.02,0,0,0.11-0.06,0.31
	c-0.54,2.74-2.95,4.56-5.63,5.03c-1.8,0.13-3.5-0.74-1.81,1.81c1.91,2,4.36,0.56,6.18-0.77c1.06-0.57,1.66,0.91,1.29,1.73
	C79.36,36.15,70.69,34.21,69.38,28.82 M117.45,20.98c0.2-0.21,0.42-0.38,0.6-0.6C117.92,20.57,117.56,20.78,117.45,20.98z
	 M117.17,24.88c0.04,0.04,0.08,0.03,0.13-0.03C117.25,24.81,117.21,24.82,117.17,24.88 M117.36,22.97c0.04,0.02-0.3,0.36-0.31,0.38
	c0.25,0,0.38-0.49,0.53-0.63C117.47,22.79,117.42,22.86,117.36,22.97 M116.92,23.5c-0.02,0.05-0.45,0.28-0.35,0.38
	C116.7,24.04,116.86,23.6,116.92,23.5z M116.35,22.02c-0.03,0.16,0.29-0.14,0.13-0.06C116.48,21.96,116.35,22.02,116.35,22.02z
	 M116.04,24.44c0.04,0.04,0.08,0.03,0.13-0.03C116.12,24.37,116.08,24.38,116.04,24.44 M115.82,22.62c-0.21,0.19,0.2,0,0.09-0.03
	C115.87,22.58,115.86,22.62,115.82,22.62 M119.43,21.17c0.24-0.29,0.57-0.85,0.85-1.1c-1.06,1.04-2.48,2.77-3.52,3.87
	c-0.35,0.45-1.03,0.75-1.13,1.32C116.91,23.93,118.21,22.57,119.43,21.17 M115.41,25.2c-0.01,0.26,0.1-0.12,0.06-0.06
	C115.47,25.14,115.41,25.2,115.41,25.2z M120.5,21.64c0.09-0.09,0.33-0.62,0.47-0.69c-1.66,1.78-3.41,3.96-5.19,5.63
	c0.14,0.09-0.15,0.3-0.16,0.09l-0.16,0.19l-0.19-0.09c0.05,0.06,0.29,0.32,0.19,0.41c-0.32-0.16-0.19,0.22-0.03,0.13
	C117.14,25.55,118.99,23.66,120.5,21.64 M115.12,27.65c0.08,0,0.14-0.02,0.16-0.06c0.04-0.29-0.57,0.07-0.54,0.13
	c0.05,0,0.12,0.1,0.16,0.13C115.01,27.75,114.9,27.6,115.12,27.65 M114.71,25.99c-0.1,0.06-0.13,0.12-0.06,0.19
	c0.08,0.04,0.12-0.32,0.22-0.22c0.18,0.09,0.09-0.01,0.19-0.09H115c0.16-0.08,0.06-0.42,0.03-0.5
	C114.93,25.59,114.92,25.79,114.71,25.99 M114.4,26.52c0.06-0.06,0.06-0.1,0-0.13c-0.05-0.03-0.23,0.28-0.13,0.28
	C114.27,26.68,114.4,26.52,114.4,26.52z M114.09,26.52c0.02,0,0.05-0.02,0.1-0.06C114.16,26.4,113.84,26.62,114.09,26.52
	 M114.31,26.99c0.01-0.03-0.17-0.2-0.22-0.25c-0.16,0.15-0.19,0.33,0.06,0.16C114.11,27.06,114.22,27.13,114.31,26.99z
	 M113.55,27.46c0.06-0.04,0.14-0.13,0.22-0.25c-0.22,0.04-0.79,0.72-0.33,0.38C113.54,27.49,113.57,27.44,113.55,27.46
	 M113.24,27.81c-0.06-0.07-0.22,0.22-0.12,0.22C113.19,27.98,113.26,27.92,113.24,27.81z M113.77,25.83
	c1.52-1.59,3.11-3.88,4.69-5.54c-0.74,0.23-1.36,1.3-1.89,1.82c-1.03,0.91-1.81,2.1-2.86,2.97c-0.1,0.12-0.29,0.17-0.14,0.25
	c0.13,0.09-0.15,0.36-0.3,0.14c0.15,0.11-0.05,0.22-0.16,0.28c0.37-0.13-0.24,0.36-0.25,0.47c-0.23-0.04-0.32-0.08-0.27,0.2
	c0.06,0.16-0.11,0.35-0.28,0.3c-0.19-0.05,0.03,0.27-0.11,0.28c-0.86,0.85-1.46,2.47-2.46,3.49c0.47-0.01,0.76-0.71,0.98-1.01
	C111.72,28.28,112.77,27.04,113.77,25.83 M116.76,27.68c-3.26,2.87,1.18,1.02,3.3,1.79c0.31,0.04,0.19,0.18,0.11,0.35
	c0.25,0.35,1.05-0.33,1.08,0.46c0.26-0.1,0.66,0.15,0.68,0.42c-0.05,0.18-0.19,0.48,0.19,0.28c0.55-0.14-0.12,0.48-0.2,0.63
	c-0.1,0.15-0.01,0.2,0.16,0.09c1.01-0.71,0.28,0.56-0.19,0.91c-2.48,1.44-5.54,1.08-8.31,1.2c-1.84-0.22-5.01,0.64-6.14-1.21
	c-0.22-0.95,0.66-1.83,1.16-2.53l2.8-3.52c1.62-2.02,3.18-4,5.07-5.79c-0.33,0.04-0.74,0.09-1.23,0.14
	c-2.3,0.19-5.44,0.76-6.56-1.81c-0.1-0.27-0.09-0.49,0.24-0.6c-2.95-1.17,7.77-1.23,8.37-1.23c1.18,0.12,3.21-0.29,4.12,0.38
	c-0.05,0.14-0.51,0.46-0.47,0.63c0.04,0.04,0.57-0.33,0.74-0.43c0.12-0.07,0.21-0.04,0.3,0.11c0.12,0.18-0.53,0.43-0.35,0.63
	c0.22-0.15,0.38-0.35,0.63-0.31c1.62,1.92-6.48,8.57-7.61,10.63c0,0.02,0.11-0.08,0.33-0.32c2.64-2.79,5.46-5.76,7.6-8.9
	C121.47,22.64,118.81,25.21,116.76,27.68 M138.19,27.27c-0.06,0.06-0.05,0.11,0.03,0.13C138.26,27.36,138.25,27.32,138.19,27.27
	 M137.81,23.34c-0.06,0.06-0.06,0.09,0,0.09C137.89,23.42,137.89,23.38,137.81,23.34 M137.37,21.83c-0.1-0.21-0.02,0.2-0.03,0.19
	C137.36,22.05,137.45,21.87,137.37,21.83 M137.84,28.28c-0.22,0.67-0.45,1.39-0.79,2.01c0.31-0.76,1.39-1.98,1.07-2.77
	C137.96,27.66,137.88,28.08,137.84,28.28 M136.64,29.67c-0.04,0.08-0.46,0.78-0.38,0.91c0.36-0.73,0.94-1.42,1.01-2.27L136.64,29.67
	z M135.83,28.44c-0.2,0.19-0.36,0.71-0.44,0.97C135.51,29.25,135.83,28.67,135.83,28.44 M134.16,27.97
	c-0.17,0.29-0.18,0.37-0.28,0.66C134.01,28.56,134.23,28,134.16,27.97 M134.47,27.9c-0.26,1.04-1.48,2.42-1.73,3.12
	c0.23,0.06,0.51-0.45,0.76-0.69C133.88,29.65,134.49,28.71,134.47,27.9 M128.05,27.56c0.13,0.04,0.13,0.08,0,0.13
	C127.97,27.64,127.97,27.6,128.05,27.56 M127.87,26.77c-0.04-0.04-0.01-0.32,0.09-0.22C128,26.55,127.92,26.87,127.87,26.77
	 M127.9,28.63c0.04-0.04,0.03-0.08-0.03-0.13C127.82,28.54,127.83,28.59,127.9,28.63 M129.12,21.26c0.07-0.07,0.33-0.29,0.31-0.41
	c-0.96,0.81-1.89,2.09-1.7,3.37c0.12,0,0.2-0.21,0.14-0.39C127.91,22.87,128.62,22.03,129.12,21.26 M127.77,25.89
	c0.23-0.02-0.08-0.46-0.09-0.44C127.66,25.6,127.61,25.9,127.77,25.89 M127.68,24.44c0.08-0.02,0.08-0.05,0-0.09
	C127.61,24.41,127.61,24.44,127.68,24.44 M127.83,25.35c0.1-0.02-0.16-0.29-0.19-0.19C127.55,25.21,127.78,25.41,127.83,25.35
	 M127.8,22.08c-0.11,0.13-0.15,0.41-0.22,0.6c0.26-0.46,0.87-1.17,1.04-1.7C128.43,21.32,128.04,21.78,127.8,22.08 M128.9,29.85
	c3.05,4.29,5.57-4.78,4.78-7.11c-0.39-4.39-4.32-2.75-5.38,0.33c-0.34,0.59-0.09,1.47-0.56,1.93c0.26,0.23,0.31,0.95,0.13,1.26
	c-0.13-0.57-0.19-0.08-0.38,0.12c0.17,0.07,0.4,0.17,0.06,0.22c0.08,0.04,0.13,0.09,0.13,0.16c-0.09,0.1-0.17-0.15-0.25-0.12
	c-0.06,0-0.07,0.01-0.03,0.05c0.11,0.1,0.45,0.25,0.41,0.42c-0.18-0.01-0.11,0.1,0,0.16c-0.11,0.2-0.19,0.11,0.03,0.35
	c0.2,0.17-0.12,0.27-0.16,0.11c-0.05-0.07-0.11,0.34-0.03,0.39c0.02,0,0.05-0.03,0.09-0.09c0.27-0.23-0.07,0.29,0,0.31l0.19-0.19
	c0.11,0.33,0.29,0.54,0.38,0.82c0.01,0.05,0.3,0.35,0.35,0.35c-0.11,0.11-0.12,0.17-0.03,0.19C128.7,29.53,128.8,29.65,128.9,29.85
	 M127.27,26.96c-0.03-0.11-0.06-0.17-0.05,0C127.23,27.02,127.25,27.02,127.27,26.96 M127.24,26.58c-0.11,0.18,0.2,0.04,0.09-0.09
	C127.33,26.49,127.24,26.58,127.24,26.58z M127.49,27.43c0.13-0.08,0.16-0.3,0.03-0.41c0.11,0.16-0.65,0.3-0.19,0.38
	C127.44,27.38,127.49,27.39,127.49,27.43 M127.08,21.45c0.06-0.13,0.06-0.14-0.01-0.05c-0.4,0.42-0.69,1.15-0.96,1.73
	C126.05,23.6,126.93,21.69,127.08,21.45 M126.51,20.64c0.09-0.16,1.05-1.2,0.36-0.77c-0.81,0.8-1.66,1.83-1.84,2.94
	C125.53,22.12,125.87,21.22,126.51,20.64 M124.85,23.22c0.06-0.08,0.05-0.16-0.03-0.22C124.78,22.96,124.75,23.32,124.85,23.22
	 M130.92,34.39C122,34.7,120.67,20.08,128.91,18c3.74-1.63,7.85,0.87,8.87,4.69l0.1-0.09l0.13,0.38c0.05,0.16,0.27,0.79,0.16,0.79
	c0.15,0.26,0.1-0.05,0.19,0.31c0.1,0.24,0.25,0.27-0.03,0.47c0.1,0.27,0.46,0.89,0.35,1.13c-0.14-0.32-0.14,0.14,0.05,0.08
	c0.19-0.04,0.11,0.62-0.11,0.52c-0.14-0.07,0.06-0.27,0.09-0.32c0,0.02-0.24-0.15-0.19-0.16c-0.08,0.01-0.17,0.67,0,0.66
	c0.1-0.09,0.33-0.34,0.28-0.03C138.38,30.63,135.39,34.4,130.92,34.39 M154.7,25.61c-0.06-0.06-0.12-0.05-0.16,0.03
	C154.61,25.7,154.66,25.69,154.7,25.61 M154.64,22.93c0.1-0.1-0.13-0.43-0.16-0.5C154.48,22.44,154.54,22.99,154.64,22.93
	 M154.33,26.11c-0.15,1.03-0.25,2.95-0.66,3.9c0.58-0.73,0.84-2.51,0.88-3.43c-0.17,0.08-0.12-0.09-0.09-0.31
	C154.67,24.99,154.44,24.4,154.33,26.11 M153.45,28.47c-0.05,0.06-0.08,0.79-0.16,0.85c0.53-1.06,0.57-2.38,0.53-3.56
	C153.75,26.67,153.57,27.58,153.45,28.47 M152.28,28.66c0.03-0.31,0.04-0.82,0.06-1.13c-0.18,0.19-0.14,0.99-0.19,1.23
	c-0.06,0.33-0.29,0.7-0.19,1.04C151.95,29.57,152.26,28.88,152.28,28.66 M150.58,29.7c-0.02-0.04-0.03,0.02-0.03,0.19
	C150.55,29.8,150.59,29.79,150.58,29.7 M150.52,30.67c0,0.08,0.04,0.58,0,0.66C150.61,31.13,150.56,30.88,150.52,30.67
	 M144.95,20.13c0.05-0.15,0.14,0.1,0.16,0.19L144.95,20.13z M144.57,24.44c0.06-0.1,0.05-0.19-0.03-0.25
	C144.58,24.1,144.53,24.59,144.57,24.44 M144.48,31.65c-0.05,0.21,0.01,0.35,0,0.57c0.02-2.23,0.94-5.07,0.03-7.14
	C144.74,27.16,144.58,29.55,144.48,31.65 M143.19,28.16c0,0.11,0.01,0.17,0.03,0.19c0.01-0.74,0-1.48-0.1-2.2
	c-0.03-0.48,0.08-1.18-0.13-1.6C143.01,25.73,143.04,26.98,143.19,28.16z M141.9,19.38c0-0.1-0.05-0.18-0.16-0.22
	C141.68,19.34,141.73,19.57,141.9,19.38z M141.62,19.25c0-0.06-0.01-0.11-0.03-0.16c-0.09-0.06-0.1,0.24-0.06,0.25
	C141.52,19.35,141.62,19.25,141.62,19.25z M141.46,28.16c0.11-0.01-0.06-0.11-0.08-0.03C141.35,28.17,141.37,28.18,141.46,28.16
	 M141.43,26.17c-0.06-0.51,0.07-1.4-0.16-1.89c0.01,0.99,0.01,2.1,0.22,3.08C141.49,27,141.47,26.55,141.43,26.17 M141.14,22.46
	l-0.06-0.06C141.08,22.5,141.1,22.52,141.14,22.46 M141.18,21.89c0.08-0.2-0.09-0.02-0.11,0.05
	C141.06,22.05,141.16,21.93,141.18,21.89z M145.11,20.7c0.04-0.04,0.04-0.17,0-0.38l0.13,0.09l0.66-0.66
	c2.33-3.09,7.56-1.59,8.65,1.78c0.84,3.65,0.61,9.02-2.52,11.61c-2.42,1.78-0.89-2.62-1.17-3.85c-0.39,0.64,0.02,4.34-0.64,3.92
	c-1.25-1.53,0.52-12.43-2.09-11.64c-0.95,0.91-2.27,2.04-2.27,3.45c0.31,2.81,0.25,5.94-0.97,8.5c-0.1-2.04,0.98-4.1,0.57-6.23
	c-0.01-0.6,0.03-1.44-0.05-2.01c-0.3-1.03-0.17,4.25-0.19,4.91c0.02,0.54-0.71,4.82-0.74,2.68c-0.05,0.03-0.03,0.7-0.19,0.44
	c-0.33,0.7-0.44,0.25-0.57-0.22c0.09,0.4-0.17,1.35-0.6,0.63c-0.06-0.15-0.13-0.22-0.19-0.22c-0.2,0.81-0.92-0.19-1.23-0.53
	c-1.99-1.69-2.93-14.6-0.06-14.91c-0.01,0.17-0.06,0.3-0.13,0.47c0.17,0.03,0.15-0.38,0.25-0.41c0.07,0.32-0.02,0.67,0.06,0.91
	c0.32-0.56,0.65-1.63,1.15-0.47c0.13,0,0.15-0.34,0.3-0.28c0.53,0.26,1.24,0.68,1.4,1.3c0.06,0.29,0.29,0.48,0.27,0.76
	C144.97,20.39,144.94,20.9,145.11,20.7 M168.08,24.88c-0.02-0.03-0.28,0.3-0.32,0.32c0.02-0.02-0.02,0.03-0.11,0.16
	C167.31,25.9,168.16,25.03,168.08,24.88 M168.55,24.82c-0.34,0.49-0.84,1.37-1.32,1.73c0.74-0.41,1.22-1.24,1.51-2.05
	C168.65,24.59,168.59,24.7,168.55,24.82 M167.13,24.63c-0.19,0.17-0.03,0.11,0.06-0.03L167.13,24.63z M166.35,23.78
	c-0.1,0.23,0.11-0.02,0.13-0.09C166.47,23.69,166.35,23.78,166.35,23.78z M166.47,24.07c-0.28,0.14-0.73,0.59-1.07,0.91
	C165.82,24.97,166.25,24.37,166.47,24.07 M163.83,21.14c-0.95,0.49-2.02,1.58-2.3,2.64c0.28-0.19,0.52-0.73,0.69-1.01
	c0.42-0.82,1.42-1.16,1.98-1.82L163.83,21.14z M161.34,24.22c-0.11,0.24,0.15-0.08,0.09-0.09
	C161.44,24.13,161.34,24.22,161.34,24.22z M166.03,20.76c-2.69-0.34-7.24,7.31-2.49,4.44c1.24-0.79,2.23-1.77,2.8-3.18
	C166.53,21.48,166.88,20.67,166.03,20.76 M161.25,24.66c0.06-0.06,0.07-0.14,0.03-0.22C161.25,24.38,161.06,24.78,161.25,24.66
	 M161.03,25.04c0.02,0.02,0.1-0.18,0.12-0.25C161.07,24.81,161.03,24.89,161.03,25.04 M162.82,21.08c-0.82,0.61-1.33,1.46-1.79,2.36
	C161.72,22.86,162.14,21.68,162.82,21.08 M160.78,21.08c0.1-0.06,0.17-0.14,0.19-0.22C160.86,20.88,160.84,21,160.78,21.08z
	 M161.22,20.98c-0.48,0.39-0.8,0.79-1.07,1.39c0.04,0,0.09-0.04,0.16-0.11C160.6,21.9,160.94,21.35,161.22,20.98z M159.3,20.54
	c-0.02,0.04-0.07,0.1-0.16,0.19C159.4,20.69,159.64,20.19,159.3,20.54 M158.92,21.52c-0.22,0.68,1.08-1.04,1.29-1.23
	c0.38-0.34,1.16-0.89,1.48-1.29C160.5,19.13,159.51,20.52,158.92,21.52 M156.53,28.82c-2.14-5.84,4.66-14.71,10.64-10
	c1.71,1.29,2.66,3.25,1.79,5.35c0.34-0.14,0.11-0.92,0.41-1.07c0.02,0,0,0.11-0.06,0.31c-0.54,2.74-2.95,4.56-5.63,5.03
	c-1.8,0.13-3.5-0.74-1.81,1.81c1.91,2,4.36,0.56,6.18-0.77c1.06-0.57,1.66,0.91,1.29,1.73C166.51,36.15,157.84,34.21,156.53,28.82"
	/>
<path class="st1" d="M97.8,0c2.28,0,3.8,1.85,3.4,4.12c-0.4,2.28-2.57,4.12-4.85,4.12s-3.8-1.85-3.4-4.12C93.35,1.85,95.52,0,97.8,0
	 M79.02,11.35c6.51-2.26,10.79,2.48,10.79,2.48s1.77,3.77-0.67,12.72C86.7,35.49,79.6,40.6,79.6,40.6
	c7.11-2.73,12.96-9.59,15.31-17.32c4.76,0.48,2.89,8.64,1.59,13.07c9.36-10.06,5.09-18.21-1.05-15.18c0.33-1.51,0.52-3.04,0.55-4.57
	c3.43,1.38,9.69,0.91,10.95-2.55C94.97,13.58,86.65-0.27,79.02,11.35"/>
</svg>
