<?xml version="1.0" encoding="utf-8"?>
<!-- Generator: Adobe Illustrator 26.0.1, SVG Export Plug-In . SVG Version: 6.00 Build 0)  -->
<svg version="1.1" id="Layer_1" xmlns="http://www.w3.org/2000/svg" xmlns:xlink="http://www.w3.org/1999/xlink" x="0px" y="0px"
	 viewBox="0 0 134 30" style="enable-background:new 0 0 134 30;" xml:space="preserve">
<style type="text/css">
	.st0{fill:#FFFFFF;}
	.st1{fill:#62BA46;}
</style>
<path class="st0" d="M32.51,22.68c-3.21,0-5.81-2.6-5.81-5.81c0-3.21,2.6-5.81,5.81-5.81s5.81,2.6,5.81,5.81
	C38.32,20.08,35.72,22.68,32.51,22.68 M32.51,4.82c-6.66,0-12.05,5.4-12.05,12.05s5.4,12.05,12.05,12.05s12.05-5.4,12.05-12.05
	S39.17,4.82,32.51,4.82 M107.97,5.58h-6.3v13.83c0,2.05-1.05,3.81-3.45,3.81c-2.21,0-3.52-1.78-3.52-3.54V5.58h-6.24
	c-0.25,0-0.48,0.22-0.48,0.48v12.98c0,5.82,4.16,9.97,10.23,9.97c6.93,0,10.23-4.91,10.23-10.04V6.06
	C108.44,5.8,108.22,5.58,107.97,5.58 M85.93,7.55C86,7.4,86.08,7.17,86.08,6.9c0-0.21,0-1.31,0-1.31H68.92
	c-0.25,0-0.48,0.22-0.48,0.48l0,5.11h8.02L68.7,26.58c-0.03,0.04-0.06,0.11-0.1,0.21c-0.06,0.15-0.13,0.36-0.13,0.59
	c0,0.22-0.01,1.33-0.01,1.33h17.61v-5.16c0-0.25-0.22-0.48-0.48-0.48h-7.72C77.87,23.07,85.89,7.65,85.93,7.55 M132.68,5.58
	c-0.86,0-1.2,0.18-1.47,0.4c-0.01,0.01-0.01,0.01-0.02,0.01c0,0-8.86,8.77-8.86,8.77s-8.86-8.77-8.86-8.77
	c-0.01,0-0.01-0.01-0.02-0.01c-0.28-0.22-0.61-0.4-1.47-0.4h-0.85v23.12h6.12V17.57l5.17,5.4l5.04-5.18l0.02,10.92h6.06V5.58H132.68
	z M65.25,5.58l-6.08,0v10c0,0-10.43-9.59-10.43-9.6c-0.28-0.22-0.61-0.39-1.46-0.39h-0.85v23.11l6.38,0L52.8,18.46l11.03,10.27
	l1.9,0V6.06C65.73,5.8,65.5,5.58,65.25,5.58 M18.17,11.27l-4.6-4.6l-6.69,6.2v-7.3H0.94c-0.25,0-0.48,0.22-0.48,0.48v22.72h6.42
	v-7.34l7.32,7.27l8.57,0L11.81,17.69L18.17,11.27z"/>
<rect x="16.01" y="2.34" transform="matrix(0.707 -0.7072 0.7072 0.707 1.6903 15.2585)" class="st1" width="6.51" height="6.51"/>
</svg>
